<?xml version="1.0" encoding="utf-8" standalone="no"?>
<!DOCTYPE svg PUBLIC "-//W3C//DTD SVG 1.1//EN"
  "http://www.w3.org/Graphics/SVG/1.1/DTD/svg11.dtd">
<!-- Created with matplotlib (http://matplotlib.org/) -->
<svg height="296pt" version="1.1" viewBox="0 0 437 296" width="437pt" xmlns="http://www.w3.org/2000/svg" xmlns:xlink="http://www.w3.org/1999/xlink">
 <defs>
  <style type="text/css">
*{stroke-linecap:butt;stroke-linejoin:round;}
  </style>
 </defs>
 <g id="figure_1">
  <g id="patch_1">
   <path d="M 0 296.73375 
L 437.479375 296.73375 
L 437.479375 -0 
L 0 -0 
z
" style="fill:#ffffff;"/>
  </g>
  <g id="axes_1">
   <g id="patch_2">
    <path d="M 84.779375 208.16 
L 419.579375 208.16 
L 419.579375 17.9 
L 84.779375 17.9 
z
" style="fill:#ffffff;"/>
   </g>
   <g id="matplotlib.axis_1">
    <g id="xtick_1">
     <g id="line2d_1">
      <path clip-path="url(#pfeb5bf54a8)" d="M 99.997557 208.16 
L 99.997557 17.9 
" style="fill:none;stroke:#d9d9d9;stroke-dasharray:5.6,2.4;stroke-dashoffset:0;"/>
     </g>
     <g id="line2d_2">
      <defs>
       <path d="M 0 0 
L 0 3.5 
" id="mbb8f79a74c" style="stroke:#000000;stroke-width:0.8;"/>
      </defs>
      <g>
       <use style="stroke:#000000;stroke-width:0.8;" x="99.997557" xlink:href="#mbb8f79a74c" y="208.16"/>
      </g>
     </g>
     <g id="text_1">
      <!-- [1—50] -->
      <defs>
       <path d="M 8.59375 75.984375 
L 29.296875 75.984375 
L 29.296875 69 
L 17.578125 69 
L 17.578125 -6.203125 
L 29.296875 -6.203125 
L 29.296875 -13.1875 
L 8.59375 -13.1875 
z
" id="DejaVuSans-5b"/>
       <path d="M 12.40625 8.296875 
L 28.515625 8.296875 
L 28.515625 63.921875 
L 10.984375 60.40625 
L 10.984375 69.390625 
L 28.421875 72.90625 
L 38.28125 72.90625 
L 38.28125 8.296875 
L 54.390625 8.296875 
L 54.390625 0 
L 12.40625 0 
z
" id="DejaVuSans-31"/>
       <path d="M 4.890625 30.90625 
L 95.125 30.90625 
L 95.125 23.875 
L 4.890625 23.875 
z
" id="DejaVuSans-2014"/>
       <path d="M 10.796875 72.90625 
L 49.515625 72.90625 
L 49.515625 64.59375 
L 19.828125 64.59375 
L 19.828125 46.734375 
Q 21.96875 47.46875 24.109375 47.828125 
Q 26.265625 48.1875 28.421875 48.1875 
Q 40.625 48.1875 47.75 41.5 
Q 54.890625 34.8125 54.890625 23.390625 
Q 54.890625 11.625 47.5625 5.09375 
Q 40.234375 -1.421875 26.90625 -1.421875 
Q 22.3125 -1.421875 17.546875 -0.640625 
Q 12.796875 0.140625 7.71875 1.703125 
L 7.71875 11.625 
Q 12.109375 9.234375 16.796875 8.0625 
Q 21.484375 6.890625 26.703125 6.890625 
Q 35.15625 6.890625 40.078125 11.328125 
Q 45.015625 15.765625 45.015625 23.390625 
Q 45.015625 31 40.078125 35.4375 
Q 35.15625 39.890625 26.703125 39.890625 
Q 22.75 39.890625 18.8125 39.015625 
Q 14.890625 38.140625 10.796875 36.28125 
z
" id="DejaVuSans-35"/>
       <path d="M 31.78125 66.40625 
Q 24.171875 66.40625 20.328125 58.90625 
Q 16.5 51.421875 16.5 36.375 
Q 16.5 21.390625 20.328125 13.890625 
Q 24.171875 6.390625 31.78125 6.390625 
Q 39.453125 6.390625 43.28125 13.890625 
Q 47.125 21.390625 47.125 36.375 
Q 47.125 51.421875 43.28125 58.90625 
Q 39.453125 66.40625 31.78125 66.40625 
M 31.78125 74.21875 
Q 44.046875 74.21875 50.515625 64.515625 
Q 56.984375 54.828125 56.984375 36.375 
Q 56.984375 17.96875 50.515625 8.265625 
Q 44.046875 -1.421875 31.78125 -1.421875 
Q 19.53125 -1.421875 13.0625 8.265625 
Q 6.59375 17.96875 6.59375 36.375 
Q 6.59375 54.828125 13.0625 64.515625 
Q 19.53125 74.21875 31.78125 74.21875 
" id="DejaVuSans-30"/>
       <path d="M 30.421875 75.984375 
L 30.421875 -13.1875 
L 9.71875 -13.1875 
L 9.71875 -6.203125 
L 21.390625 -6.203125 
L 21.390625 69 
L 9.71875 69 
L 9.71875 75.984375 
z
" id="DejaVuSans-5d"/>
      </defs>
      <g transform="translate(103.308807 259.42875)rotate(-90)scale(0.12 -0.12)">
       <use xlink:href="#DejaVuSans-5b"/>
       <use x="39.013672" xlink:href="#DejaVuSans-31"/>
       <use x="102.636719" xlink:href="#DejaVuSans-2014"/>
       <use x="202.636719" xlink:href="#DejaVuSans-35"/>
       <use x="266.259766" xlink:href="#DejaVuSans-30"/>
       <use x="329.882812" xlink:href="#DejaVuSans-5d"/>
      </g>
     </g>
    </g>
    <g id="xtick_2">
     <g id="line2d_3">
      <path clip-path="url(#pfeb5bf54a8)" d="M 143.478076 208.16 
L 143.478076 17.9 
" style="fill:none;stroke:#d9d9d9;stroke-dasharray:5.6,2.4;stroke-dashoffset:0;"/>
     </g>
     <g id="line2d_4">
      <g>
       <use style="stroke:#000000;stroke-width:0.8;" x="143.478076" xlink:href="#mbb8f79a74c" y="208.16"/>
      </g>
     </g>
     <g id="text_2">
      <!-- [50—100] -->
      <g transform="translate(146.789326 274.69875)rotate(-90)scale(0.12 -0.12)">
       <use xlink:href="#DejaVuSans-5b"/>
       <use x="39.013672" xlink:href="#DejaVuSans-35"/>
       <use x="102.636719" xlink:href="#DejaVuSans-30"/>
       <use x="166.259766" xlink:href="#DejaVuSans-2014"/>
       <use x="266.259766" xlink:href="#DejaVuSans-31"/>
       <use x="329.882812" xlink:href="#DejaVuSans-30"/>
       <use x="393.505859" xlink:href="#DejaVuSans-30"/>
       <use x="457.128906" xlink:href="#DejaVuSans-5d"/>
      </g>
     </g>
    </g>
    <g id="xtick_3">
     <g id="line2d_5">
      <path clip-path="url(#pfeb5bf54a8)" d="M 186.958596 208.16 
L 186.958596 17.9 
" style="fill:none;stroke:#d9d9d9;stroke-dasharray:5.6,2.4;stroke-dashoffset:0;"/>
     </g>
     <g id="line2d_6">
      <g>
       <use style="stroke:#000000;stroke-width:0.8;" x="186.958596" xlink:href="#mbb8f79a74c" y="208.16"/>
      </g>
     </g>
     <g id="text_3">
      <!-- [100—250] -->
      <defs>
       <path d="M 19.1875 8.296875 
L 53.609375 8.296875 
L 53.609375 0 
L 7.328125 0 
L 7.328125 8.296875 
Q 12.9375 14.109375 22.625 23.890625 
Q 32.328125 33.6875 34.8125 36.53125 
Q 39.546875 41.84375 41.421875 45.53125 
Q 43.3125 49.21875 43.3125 52.78125 
Q 43.3125 58.59375 39.234375 62.25 
Q 35.15625 65.921875 28.609375 65.921875 
Q 23.96875 65.921875 18.8125 64.3125 
Q 13.671875 62.703125 7.8125 59.421875 
L 7.8125 69.390625 
Q 13.765625 71.78125 18.9375 73 
Q 24.125 74.21875 28.421875 74.21875 
Q 39.75 74.21875 46.484375 68.546875 
Q 53.21875 62.890625 53.21875 53.421875 
Q 53.21875 48.921875 51.53125 44.890625 
Q 49.859375 40.875 45.40625 35.40625 
Q 44.1875 33.984375 37.640625 27.21875 
Q 31.109375 20.453125 19.1875 8.296875 
" id="DejaVuSans-32"/>
      </defs>
      <g transform="translate(190.269846 282.33375)rotate(-90)scale(0.12 -0.12)">
       <use xlink:href="#DejaVuSans-5b"/>
       <use x="39.013672" xlink:href="#DejaVuSans-31"/>
       <use x="102.636719" xlink:href="#DejaVuSans-30"/>
       <use x="166.259766" xlink:href="#DejaVuSans-30"/>
       <use x="229.882812" xlink:href="#DejaVuSans-2014"/>
       <use x="329.882812" xlink:href="#DejaVuSans-32"/>
       <use x="393.505859" xlink:href="#DejaVuSans-35"/>
       <use x="457.128906" xlink:href="#DejaVuSans-30"/>
       <use x="520.751953" xlink:href="#DejaVuSans-5d"/>
      </g>
     </g>
    </g>
    <g id="xtick_4">
     <g id="line2d_7">
      <path clip-path="url(#pfeb5bf54a8)" d="M 230.439115 208.16 
L 230.439115 17.9 
" style="fill:none;stroke:#d9d9d9;stroke-dasharray:5.6,2.4;stroke-dashoffset:0;"/>
     </g>
     <g id="line2d_8">
      <g>
       <use style="stroke:#000000;stroke-width:0.8;" x="230.439115" xlink:href="#mbb8f79a74c" y="208.16"/>
      </g>
     </g>
     <g id="text_4">
      <!-- [250—500] -->
      <g transform="translate(233.750365 282.33375)rotate(-90)scale(0.12 -0.12)">
       <use xlink:href="#DejaVuSans-5b"/>
       <use x="39.013672" xlink:href="#DejaVuSans-32"/>
       <use x="102.636719" xlink:href="#DejaVuSans-35"/>
       <use x="166.259766" xlink:href="#DejaVuSans-30"/>
       <use x="229.882812" xlink:href="#DejaVuSans-2014"/>
       <use x="329.882812" xlink:href="#DejaVuSans-35"/>
       <use x="393.505859" xlink:href="#DejaVuSans-30"/>
       <use x="457.128906" xlink:href="#DejaVuSans-30"/>
       <use x="520.751953" xlink:href="#DejaVuSans-5d"/>
      </g>
     </g>
    </g>
    <g id="xtick_5">
     <g id="line2d_9">
      <path clip-path="url(#pfeb5bf54a8)" d="M 273.919635 208.16 
L 273.919635 17.9 
" style="fill:none;stroke:#d9d9d9;stroke-dasharray:5.6,2.4;stroke-dashoffset:0;"/>
     </g>
     <g id="line2d_10">
      <g>
       <use style="stroke:#000000;stroke-width:0.8;" x="273.919635" xlink:href="#mbb8f79a74c" y="208.16"/>
      </g>
     </g>
     <g id="text_5">
      <!-- [500—1K] -->
      <defs>
       <path d="M 9.8125 72.90625 
L 19.671875 72.90625 
L 19.671875 42.09375 
L 52.390625 72.90625 
L 65.09375 72.90625 
L 28.90625 38.921875 
L 67.671875 0 
L 54.6875 0 
L 19.671875 35.109375 
L 19.671875 0 
L 9.8125 0 
z
" id="DejaVuSans-4b"/>
      </defs>
      <g transform="translate(277.230885 274.933125)rotate(-90)scale(0.12 -0.12)">
       <use xlink:href="#DejaVuSans-5b"/>
       <use x="39.013672" xlink:href="#DejaVuSans-35"/>
       <use x="102.636719" xlink:href="#DejaVuSans-30"/>
       <use x="166.259766" xlink:href="#DejaVuSans-30"/>
       <use x="229.882812" xlink:href="#DejaVuSans-2014"/>
       <use x="329.882812" xlink:href="#DejaVuSans-31"/>
       <use x="393.505859" xlink:href="#DejaVuSans-4b"/>
       <use x="459.082031" xlink:href="#DejaVuSans-5d"/>
      </g>
     </g>
    </g>
    <g id="xtick_6">
     <g id="line2d_11">
      <path clip-path="url(#pfeb5bf54a8)" d="M 317.400154 208.16 
L 317.400154 17.9 
" style="fill:none;stroke:#d9d9d9;stroke-dasharray:5.6,2.4;stroke-dashoffset:0;"/>
     </g>
     <g id="line2d_12">
      <g>
       <use style="stroke:#000000;stroke-width:0.8;" x="317.400154" xlink:href="#mbb8f79a74c" y="208.16"/>
      </g>
     </g>
     <g id="text_6">
      <!-- [1K—2.5K] -->
      <defs>
       <path d="M 10.6875 12.40625 
L 21 12.40625 
L 21 0 
L 10.6875 0 
z
" id="DejaVuSans-2e"/>
      </defs>
      <g transform="translate(320.711404 278.98125)rotate(-90)scale(0.12 -0.12)">
       <use xlink:href="#DejaVuSans-5b"/>
       <use x="39.013672" xlink:href="#DejaVuSans-31"/>
       <use x="102.636719" xlink:href="#DejaVuSans-4b"/>
       <use x="168.212891" xlink:href="#DejaVuSans-2014"/>
       <use x="268.212891" xlink:href="#DejaVuSans-32"/>
       <use x="331.835938" xlink:href="#DejaVuSans-2e"/>
       <use x="363.623047" xlink:href="#DejaVuSans-35"/>
       <use x="427.246094" xlink:href="#DejaVuSans-4b"/>
       <use x="492.822266" xlink:href="#DejaVuSans-5d"/>
      </g>
     </g>
    </g>
    <g id="xtick_7">
     <g id="line2d_13">
      <path clip-path="url(#pfeb5bf54a8)" d="M 360.880674 208.16 
L 360.880674 17.9 
" style="fill:none;stroke:#d9d9d9;stroke-dasharray:5.6,2.4;stroke-dashoffset:0;"/>
     </g>
     <g id="line2d_14">
      <g>
       <use style="stroke:#000000;stroke-width:0.8;" x="360.880674" xlink:href="#mbb8f79a74c" y="208.16"/>
      </g>
     </g>
     <g id="text_7">
      <!-- [2.5K—5K] -->
      <g transform="translate(364.191924 278.98125)rotate(-90)scale(0.12 -0.12)">
       <use xlink:href="#DejaVuSans-5b"/>
       <use x="39.013672" xlink:href="#DejaVuSans-32"/>
       <use x="102.636719" xlink:href="#DejaVuSans-2e"/>
       <use x="134.423828" xlink:href="#DejaVuSans-35"/>
       <use x="198.046875" xlink:href="#DejaVuSans-4b"/>
       <use x="263.623047" xlink:href="#DejaVuSans-2014"/>
       <use x="363.623047" xlink:href="#DejaVuSans-35"/>
       <use x="427.246094" xlink:href="#DejaVuSans-4b"/>
       <use x="492.822266" xlink:href="#DejaVuSans-5d"/>
      </g>
     </g>
    </g>
    <g id="xtick_8">
     <g id="line2d_15">
      <path clip-path="url(#pfeb5bf54a8)" d="M 404.361193 208.16 
L 404.361193 17.9 
" style="fill:none;stroke:#d9d9d9;stroke-dasharray:5.6,2.4;stroke-dashoffset:0;"/>
     </g>
     <g id="line2d_16">
      <g>
       <use style="stroke:#000000;stroke-width:0.8;" x="404.361193" xlink:href="#mbb8f79a74c" y="208.16"/>
      </g>
     </g>
     <g id="text_8">
      <!-- [5K-100K] -->
      <defs>
       <path d="M 4.890625 31.390625 
L 31.203125 31.390625 
L 31.203125 23.390625 
L 4.890625 23.390625 
z
" id="DejaVuSans-2d"/>
      </defs>
      <g transform="translate(407.672443 275.113125)rotate(-90)scale(0.12 -0.12)">
       <use xlink:href="#DejaVuSans-5b"/>
       <use x="39.013672" xlink:href="#DejaVuSans-35"/>
       <use x="102.636719" xlink:href="#DejaVuSans-4b"/>
       <use x="168.056641" xlink:href="#DejaVuSans-2d"/>
       <use x="204.140625" xlink:href="#DejaVuSans-31"/>
       <use x="267.763672" xlink:href="#DejaVuSans-30"/>
       <use x="331.386719" xlink:href="#DejaVuSans-30"/>
       <use x="395.009766" xlink:href="#DejaVuSans-4b"/>
       <use x="460.585938" xlink:href="#DejaVuSans-5d"/>
      </g>
     </g>
    </g>
   </g>
   <g id="matplotlib.axis_2">
    <g id="ytick_1">
     <g id="line2d_17">
      <path clip-path="url(#pfeb5bf54a8)" d="M 84.779375 203.449522 
L 419.579375 203.449522 
" style="fill:none;stroke:#d9d9d9;stroke-dasharray:5.6,2.4;stroke-dashoffset:0;"/>
     </g>
     <g id="line2d_18">
      <defs>
       <path d="M 0 0 
L -3.5 0 
" id="m25e5db092f" style="stroke:#000000;stroke-width:0.8;"/>
      </defs>
      <g>
       <use style="stroke:#000000;stroke-width:0.8;" x="84.779375" xlink:href="#m25e5db092f" y="203.449522"/>
      </g>
     </g>
     <g id="text_9">
      <!-- −2.5 -->
      <defs>
       <path d="M 10.59375 35.5 
L 73.1875 35.5 
L 73.1875 27.203125 
L 10.59375 27.203125 
z
" id="DejaVuSans-2212"/>
      </defs>
      <g transform="translate(48.64 208.008584)scale(0.12 -0.12)">
       <use xlink:href="#DejaVuSans-2212"/>
       <use x="83.789062" xlink:href="#DejaVuSans-32"/>
       <use x="147.412109" xlink:href="#DejaVuSans-2e"/>
       <use x="179.199219" xlink:href="#DejaVuSans-35"/>
      </g>
     </g>
    </g>
    <g id="ytick_2">
     <g id="line2d_19">
      <path clip-path="url(#pfeb5bf54a8)" d="M 84.779375 181.388097 
L 419.579375 181.388097 
" style="fill:none;stroke:#d9d9d9;stroke-dasharray:5.6,2.4;stroke-dashoffset:0;"/>
     </g>
     <g id="line2d_20">
      <g>
       <use style="stroke:#000000;stroke-width:0.8;" x="84.779375" xlink:href="#m25e5db092f" y="181.388097"/>
      </g>
     </g>
     <g id="text_10">
      <!-- 0.0 -->
      <g transform="translate(58.695625 185.94716)scale(0.12 -0.12)">
       <use xlink:href="#DejaVuSans-30"/>
       <use x="63.623047" xlink:href="#DejaVuSans-2e"/>
       <use x="95.410156" xlink:href="#DejaVuSans-30"/>
      </g>
     </g>
    </g>
    <g id="ytick_3">
     <g id="line2d_21">
      <path clip-path="url(#pfeb5bf54a8)" d="M 84.779375 159.326672 
L 419.579375 159.326672 
" style="fill:none;stroke:#d9d9d9;stroke-dasharray:5.6,2.4;stroke-dashoffset:0;"/>
     </g>
     <g id="line2d_22">
      <g>
       <use style="stroke:#000000;stroke-width:0.8;" x="84.779375" xlink:href="#m25e5db092f" y="159.326672"/>
      </g>
     </g>
     <g id="text_11">
      <!-- 2.5 -->
      <g transform="translate(58.695625 163.885735)scale(0.12 -0.12)">
       <use xlink:href="#DejaVuSans-32"/>
       <use x="63.623047" xlink:href="#DejaVuSans-2e"/>
       <use x="95.410156" xlink:href="#DejaVuSans-35"/>
      </g>
     </g>
    </g>
    <g id="ytick_4">
     <g id="line2d_23">
      <path clip-path="url(#pfeb5bf54a8)" d="M 84.779375 137.265247 
L 419.579375 137.265247 
" style="fill:none;stroke:#d9d9d9;stroke-dasharray:5.6,2.4;stroke-dashoffset:0;"/>
     </g>
     <g id="line2d_24">
      <g>
       <use style="stroke:#000000;stroke-width:0.8;" x="84.779375" xlink:href="#m25e5db092f" y="137.265247"/>
      </g>
     </g>
     <g id="text_12">
      <!-- 5.0 -->
      <g transform="translate(58.695625 141.82431)scale(0.12 -0.12)">
       <use xlink:href="#DejaVuSans-35"/>
       <use x="63.623047" xlink:href="#DejaVuSans-2e"/>
       <use x="95.410156" xlink:href="#DejaVuSans-30"/>
      </g>
     </g>
    </g>
    <g id="ytick_5">
     <g id="line2d_25">
      <path clip-path="url(#pfeb5bf54a8)" d="M 84.779375 115.203822 
L 419.579375 115.203822 
" style="fill:none;stroke:#d9d9d9;stroke-dasharray:5.6,2.4;stroke-dashoffset:0;"/>
     </g>
     <g id="line2d_26">
      <g>
       <use style="stroke:#000000;stroke-width:0.8;" x="84.779375" xlink:href="#m25e5db092f" y="115.203822"/>
      </g>
     </g>
     <g id="text_13">
      <!-- 7.5 -->
      <defs>
       <path d="M 8.203125 72.90625 
L 55.078125 72.90625 
L 55.078125 68.703125 
L 28.609375 0 
L 18.3125 0 
L 43.21875 64.59375 
L 8.203125 64.59375 
z
" id="DejaVuSans-37"/>
      </defs>
      <g transform="translate(58.695625 119.762885)scale(0.12 -0.12)">
       <use xlink:href="#DejaVuSans-37"/>
       <use x="63.623047" xlink:href="#DejaVuSans-2e"/>
       <use x="95.410156" xlink:href="#DejaVuSans-35"/>
      </g>
     </g>
    </g>
    <g id="ytick_6">
     <g id="line2d_27">
      <path clip-path="url(#pfeb5bf54a8)" d="M 84.779375 93.142397 
L 419.579375 93.142397 
" style="fill:none;stroke:#d9d9d9;stroke-dasharray:5.6,2.4;stroke-dashoffset:0;"/>
     </g>
     <g id="line2d_28">
      <g>
       <use style="stroke:#000000;stroke-width:0.8;" x="84.779375" xlink:href="#m25e5db092f" y="93.142397"/>
      </g>
     </g>
     <g id="text_14">
      <!-- 10.0 -->
      <g transform="translate(51.060625 97.70146)scale(0.12 -0.12)">
       <use xlink:href="#DejaVuSans-31"/>
       <use x="63.623047" xlink:href="#DejaVuSans-30"/>
       <use x="127.246094" xlink:href="#DejaVuSans-2e"/>
       <use x="159.033203" xlink:href="#DejaVuSans-30"/>
      </g>
     </g>
    </g>
    <g id="ytick_7">
     <g id="line2d_29">
      <path clip-path="url(#pfeb5bf54a8)" d="M 84.779375 71.080972 
L 419.579375 71.080972 
" style="fill:none;stroke:#d9d9d9;stroke-dasharray:5.6,2.4;stroke-dashoffset:0;"/>
     </g>
     <g id="line2d_30">
      <g>
       <use style="stroke:#000000;stroke-width:0.8;" x="84.779375" xlink:href="#m25e5db092f" y="71.080972"/>
      </g>
     </g>
     <g id="text_15">
      <!-- 12.5 -->
      <g transform="translate(51.060625 75.640035)scale(0.12 -0.12)">
       <use xlink:href="#DejaVuSans-31"/>
       <use x="63.623047" xlink:href="#DejaVuSans-32"/>
       <use x="127.246094" xlink:href="#DejaVuSans-2e"/>
       <use x="159.033203" xlink:href="#DejaVuSans-35"/>
      </g>
     </g>
    </g>
    <g id="ytick_8">
     <g id="line2d_31">
      <path clip-path="url(#pfeb5bf54a8)" d="M 84.779375 49.019547 
L 419.579375 49.019547 
" style="fill:none;stroke:#d9d9d9;stroke-dasharray:5.6,2.4;stroke-dashoffset:0;"/>
     </g>
     <g id="line2d_32">
      <g>
       <use style="stroke:#000000;stroke-width:0.8;" x="84.779375" xlink:href="#m25e5db092f" y="49.019547"/>
      </g>
     </g>
     <g id="text_16">
      <!-- 15.0 -->
      <g transform="translate(51.060625 53.57861)scale(0.12 -0.12)">
       <use xlink:href="#DejaVuSans-31"/>
       <use x="63.623047" xlink:href="#DejaVuSans-35"/>
       <use x="127.246094" xlink:href="#DejaVuSans-2e"/>
       <use x="159.033203" xlink:href="#DejaVuSans-30"/>
      </g>
     </g>
    </g>
    <g id="ytick_9">
     <g id="line2d_33">
      <path clip-path="url(#pfeb5bf54a8)" d="M 84.779375 26.958123 
L 419.579375 26.958123 
" style="fill:none;stroke:#d9d9d9;stroke-dasharray:5.6,2.4;stroke-dashoffset:0;"/>
     </g>
     <g id="line2d_34">
      <g>
       <use style="stroke:#000000;stroke-width:0.8;" x="84.779375" xlink:href="#m25e5db092f" y="26.958123"/>
      </g>
     </g>
     <g id="text_17">
      <!-- 17.5 -->
      <g transform="translate(51.060625 31.517185)scale(0.12 -0.12)">
       <use xlink:href="#DejaVuSans-31"/>
       <use x="63.623047" xlink:href="#DejaVuSans-37"/>
       <use x="127.246094" xlink:href="#DejaVuSans-2e"/>
       <use x="159.033203" xlink:href="#DejaVuSans-35"/>
      </g>
     </g>
    </g>
    <g id="text_18">
     <!-- $\mathbb{E}_{y} \frac{\mathcal{H}(\hat{y}_{B}, y) - \mathcal{H}(\hat{y}_{DRILL}, y)}{\mathcal{H}(\hat{y}_{DRILL},y)}$ (%) -->
     <defs>
      <path d="M 66.40625 65.296875 
L 65.5 61.59375 
L 33.59375 61.59375 
L 26.703125 35.40625 
L 54.90625 35.40625 
L 53.796875 31.703125 
L 25.703125 31.703125 
L 18.203125 3.703125 
L 53.796875 3.703125 
L 53 0 
L 1.703125 0 
L 19.203125 65.296875 
z
M 29.90625 61.59375 
L 22.09375 61.59375 
L 6.5 3.703125 
L 14.5 3.703125 
z
" id="STIXNonUnicode-Italic-e156"/>
      <path d="M 24.8125 -5.078125 
Q 18.5625 -15.578125 14.625 -18.1875 
Q 10.6875 -20.796875 4.59375 -20.796875 
L -2.484375 -20.796875 
L -0.984375 -13.28125 
L 4.203125 -13.28125 
Q 7.953125 -13.28125 10.59375 -11.234375 
Q 13.234375 -9.1875 16.5 -3.21875 
L 19.28125 2 
L 7.171875 54.6875 
L 16.703125 54.6875 
L 25.78125 12.796875 
L 50.875 54.6875 
L 60.296875 54.6875 
z
" id="DejaVuSans-Oblique-79"/>
      <path d="M 84.5 66.203125 
L 83.5 63.796875 
Q 80.5 63.796875 79.296875 61.9375 
Q 78.09375 60.09375 76.59375 54.59375 
L 64.59375 11.90625 
Q 63.90625 9.59375 63.90625 6.703125 
Q 63.90625 2.59375 69.296875 2.59375 
Q 72.796875 2.59375 75.59375 5.296875 
L 77.09375 3.40625 
Q 74.796875 0.796875 70.796875 -0.640625 
Q 66.796875 -2.09375 63.296875 -2.09375 
Q 59.40625 -2.09375 56.046875 -0.046875 
Q 52.703125 2 52.703125 6.296875 
Q 52.703125 8.203125 53.203125 9.796875 
L 60.296875 35 
Q 57.40625 33.703125 57.296875 33.703125 
L 31.5 33.703125 
L 24.703125 9.296875 
Q 23 3.40625 18.890625 1.703125 
Q 14.796875 0 5.796875 0 
L 6.796875 2.40625 
Q 9.90625 2.703125 11.546875 4.59375 
Q 13.203125 6.5 14.59375 11.203125 
L 24.09375 45.296875 
Q 24.40625 46.203125 25.59375 51.25 
Q 26.796875 56.296875 26.796875 57.40625 
Q 26.796875 59.203125 26 60 
Q 25.203125 60.796875 22.90625 60.796875 
Q 14.40625 60.796875 5.703125 53.296875 
L 4.09375 55.09375 
Q 8.09375 59.703125 15.09375 63.046875 
Q 22.09375 66.40625 30.90625 66.40625 
Q 34.703125 66.40625 36.390625 64.546875 
Q 38.09375 62.703125 38.09375 58.90625 
Q 38.09375 56 36 48.703125 
L 32.40625 36.40625 
Q 32.90625 36.5 33.90625 37.09375 
Q 34.90625 37.703125 35.40625 37.703125 
L 61.09375 37.703125 
L 66.703125 57.09375 
Q 68.5 63.296875 71.953125 64.75 
Q 75.40625 66.203125 84.5 66.203125 
" id="STIXNonUnicode-Italic-e234"/>
      <path d="M 31 75.875 
Q 24.46875 64.65625 21.28125 53.65625 
Q 18.109375 42.671875 18.109375 31.390625 
Q 18.109375 20.125 21.3125 9.0625 
Q 24.515625 -2 31 -13.1875 
L 23.1875 -13.1875 
Q 15.875 -1.703125 12.234375 9.375 
Q 8.59375 20.453125 8.59375 31.390625 
Q 8.59375 42.28125 12.203125 53.3125 
Q 15.828125 64.359375 23.1875 75.875 
z
" id="DejaVuSans-28"/>
      <path d="M -28.609375 79.984375 
L -21.390625 79.984375 
L -9.421875 61.625 
L -16.21875 61.625 
L -25 73.578125 
L -33.796875 61.625 
L -40.578125 61.625 
z
M -25 56 
z
" id="DejaVuSans-302"/>
      <path d="M 16.890625 72.90625 
L 42.09375 72.90625 
Q 52.34375 72.90625 57.421875 69.09375 
Q 62.5 65.28125 62.5 57.625 
Q 62.5 50.59375 58.125 45.484375 
Q 53.765625 40.375 46.6875 39.3125 
Q 52.734375 37.9375 55.765625 34.078125 
Q 58.796875 30.21875 58.796875 23.78125 
Q 58.796875 12.796875 50.65625 6.390625 
Q 42.53125 0 28.421875 0 
L 2.6875 0 
z
M 19.28125 34.8125 
L 14.109375 8.109375 
L 29.984375 8.109375 
Q 38.921875 8.109375 43.75 12.203125 
Q 48.578125 16.3125 48.578125 23.78125 
Q 48.578125 29.546875 45.375 32.171875 
Q 42.1875 34.8125 35.109375 34.8125 
z
M 25.09375 64.796875 
L 20.796875 42.828125 
L 35.5 42.828125 
Q 43.359375 42.828125 47.78125 46.234375 
Q 52.203125 49.65625 52.203125 55.71875 
Q 52.203125 60.453125 49.21875 62.625 
Q 46.234375 64.796875 39.703125 64.796875 
z
" id="DejaVuSans-Oblique-42"/>
      <path d="M 11.71875 12.40625 
L 22.015625 12.40625 
L 22.015625 4 
L 14.015625 -11.625 
L 7.71875 -11.625 
L 11.71875 4 
z
" id="DejaVuSans-2c"/>
      <path d="M 8.015625 75.875 
L 15.828125 75.875 
Q 23.140625 64.359375 26.78125 53.3125 
Q 30.421875 42.28125 30.421875 31.390625 
Q 30.421875 20.453125 26.78125 9.375 
Q 23.140625 -1.703125 15.828125 -13.1875 
L 8.015625 -13.1875 
Q 14.5 -2 17.703125 9.0625 
Q 20.90625 20.125 20.90625 31.390625 
Q 20.90625 42.671875 17.703125 53.65625 
Q 14.5 64.65625 8.015625 75.875 
" id="DejaVuSans-29"/>
      <path d="M 16.890625 72.90625 
L 38.09375 72.90625 
Q 54.984375 72.90625 63.59375 65.75 
Q 72.21875 58.59375 72.21875 44.484375 
Q 72.21875 35.15625 68.9375 26.53125 
Q 65.671875 17.921875 59.90625 12.015625 
Q 54.109375 5.953125 45.171875 2.96875 
Q 36.234375 0 24.03125 0 
L 2.6875 0 
z
M 25.203125 64.796875 
L 14.203125 8.109375 
L 27.09375 8.109375 
Q 43.65625 8.109375 52.734375 17.625 
Q 61.8125 27.15625 61.8125 44.484375 
Q 61.8125 54.984375 55.953125 59.890625 
Q 50.09375 64.796875 37.59375 64.796875 
z
" id="DejaVuSans-Oblique-44"/>
      <path d="M 25.203125 64.796875 
L 20.21875 38.921875 
L 32.90625 38.921875 
Q 40.375 38.921875 44.984375 43.046875 
Q 49.609375 47.171875 49.609375 53.8125 
Q 49.609375 59.125 46.5 61.953125 
Q 43.40625 64.796875 37.59375 64.796875 
z
M 43.3125 35.015625 
Q 46.4375 34.28125 48.515625 31.390625 
Q 50.59375 28.515625 53.328125 19.921875 
L 59.515625 0 
L 49.125 0 
L 43.40625 18.703125 
Q 41.21875 25.921875 38.328125 28.359375 
Q 35.453125 30.8125 29.5 30.8125 
L 18.609375 30.8125 
L 12.59375 0 
L 2.6875 0 
L 16.890625 72.90625 
L 39.109375 72.90625 
Q 49.21875 72.90625 54.609375 68.328125 
Q 60.015625 63.765625 60.015625 55.171875 
Q 60.015625 47.5625 55.421875 41.984375 
Q 50.828125 36.421875 43.3125 35.015625 
" id="DejaVuSans-Oblique-52"/>
      <path d="M 16.890625 72.90625 
L 26.8125 72.90625 
L 12.59375 0 
L 2.6875 0 
z
" id="DejaVuSans-Oblique-49"/>
      <path d="M 16.796875 72.90625 
L 26.703125 72.90625 
L 14.203125 8.203125 
L 49.703125 8.203125 
L 48.09375 0 
L 2.6875 0 
z
" id="DejaVuSans-Oblique-4c"/>
      <path id="DejaVuSans-20"/>
      <path d="M 72.703125 32.078125 
Q 68.453125 32.078125 66.03125 28.46875 
Q 63.625 24.859375 63.625 18.40625 
Q 63.625 12.0625 66.03125 8.421875 
Q 68.453125 4.78125 72.703125 4.78125 
Q 76.859375 4.78125 79.265625 8.421875 
Q 81.6875 12.0625 81.6875 18.40625 
Q 81.6875 24.8125 79.265625 28.4375 
Q 76.859375 32.078125 72.703125 32.078125 
M 72.703125 38.28125 
Q 80.421875 38.28125 84.953125 32.90625 
Q 89.5 27.546875 89.5 18.40625 
Q 89.5 9.28125 84.9375 3.921875 
Q 80.375 -1.421875 72.703125 -1.421875 
Q 64.890625 -1.421875 60.34375 3.921875 
Q 55.8125 9.28125 55.8125 18.40625 
Q 55.8125 27.59375 60.375 32.9375 
Q 64.9375 38.28125 72.703125 38.28125 
M 22.3125 68.015625 
Q 18.109375 68.015625 15.6875 64.375 
Q 13.28125 60.75 13.28125 54.390625 
Q 13.28125 47.953125 15.671875 44.328125 
Q 18.0625 40.71875 22.3125 40.71875 
Q 26.5625 40.71875 28.96875 44.328125 
Q 31.390625 47.953125 31.390625 54.390625 
Q 31.390625 60.6875 28.953125 64.34375 
Q 26.515625 68.015625 22.3125 68.015625 
M 66.40625 74.21875 
L 74.21875 74.21875 
L 28.609375 -1.421875 
L 20.796875 -1.421875 
z
M 22.3125 74.21875 
Q 30.03125 74.21875 34.609375 68.875 
Q 39.203125 63.53125 39.203125 54.390625 
Q 39.203125 45.171875 34.640625 39.84375 
Q 30.078125 34.515625 22.3125 34.515625 
Q 14.546875 34.515625 10.03125 39.859375 
Q 5.515625 45.21875 5.515625 54.390625 
Q 5.515625 63.484375 10.046875 68.84375 
Q 14.59375 74.21875 22.3125 74.21875 
" id="DejaVuSans-25"/>
     </defs>
     <g transform="translate(34.08 197.43)rotate(-90)scale(0.16 -0.16)">
      <use transform="translate(0 0.825)" xlink:href="#STIXNonUnicode-Italic-e156"/>
      <use transform="translate(64.857025 -15.58125)scale(0.7)" xlink:href="#DejaVuSans-Oblique-79"/>
      <use transform="translate(109.017181 59.179688)scale(0.7)" xlink:href="#STIXNonUnicode-Italic-e234"/>
      <use transform="translate(167.187175 59.179688)scale(0.7)" xlink:href="#DejaVuSans-28"/>
      <use transform="translate(238.259441 67.007812)scale(0.7)" xlink:href="#DejaVuSans-302"/>
      <use transform="translate(194.496745 59.179688)scale(0.7)" xlink:href="#DejaVuSans-Oblique-79"/>
      <use transform="translate(236.592448 47.695312)scale(0.49)" xlink:href="#DejaVuSans-Oblique-42"/>
      <use transform="translate(272.122234 59.179688)scale(0.7)" xlink:href="#DejaVuSans-2c"/>
      <use transform="translate(308.010905 59.179688)scale(0.7)" xlink:href="#DejaVuSans-Oblique-79"/>
      <use transform="translate(349.436687 59.179688)scale(0.7)" xlink:href="#DejaVuSans-29"/>
      <use transform="translate(390.383952 59.179688)scale(0.7)" xlink:href="#DejaVuSans-2212"/>
      <use transform="translate(462.673991 59.179688)scale(0.7)" xlink:href="#STIXNonUnicode-Italic-e234"/>
      <use transform="translate(520.843985 59.179688)scale(0.7)" xlink:href="#DejaVuSans-28"/>
      <use transform="translate(591.916251 67.007812)scale(0.7)" xlink:href="#DejaVuSans-302"/>
      <use transform="translate(548.153555 59.179688)scale(0.7)" xlink:href="#DejaVuSans-Oblique-79"/>
      <use transform="translate(590.249258 47.695312)scale(0.49)" xlink:href="#DejaVuSans-Oblique-44"/>
      <use transform="translate(627.980215 47.695312)scale(0.49)" xlink:href="#DejaVuSans-Oblique-52"/>
      <use transform="translate(662.026602 47.695312)scale(0.49)" xlink:href="#DejaVuSans-Oblique-49"/>
      <use transform="translate(676.477774 47.695312)scale(0.49)" xlink:href="#DejaVuSans-Oblique-4c"/>
      <use transform="translate(703.77709 47.695312)scale(0.49)" xlink:href="#DejaVuSans-Oblique-4c"/>
      <use transform="translate(732.990469 59.179688)scale(0.7)" xlink:href="#DejaVuSans-2c"/>
      <use transform="translate(768.879141 59.179688)scale(0.7)" xlink:href="#DejaVuSans-Oblique-79"/>
      <use transform="translate(810.304922 59.179688)scale(0.7)" xlink:href="#DejaVuSans-29"/>
      <use transform="translate(286.017181 -50.448437)scale(0.7)" xlink:href="#STIXNonUnicode-Italic-e234"/>
      <use transform="translate(344.187175 -50.448437)scale(0.7)" xlink:href="#DejaVuSans-28"/>
      <use transform="translate(415.259441 -42.620312)scale(0.7)" xlink:href="#DejaVuSans-302"/>
      <use transform="translate(371.496745 -50.448437)scale(0.7)" xlink:href="#DejaVuSans-Oblique-79"/>
      <use transform="translate(413.592448 -61.932812)scale(0.49)" xlink:href="#DejaVuSans-Oblique-44"/>
      <use transform="translate(451.323405 -61.932812)scale(0.49)" xlink:href="#DejaVuSans-Oblique-52"/>
      <use transform="translate(485.369792 -61.932812)scale(0.49)" xlink:href="#DejaVuSans-Oblique-49"/>
      <use transform="translate(499.820964 -61.932812)scale(0.49)" xlink:href="#DejaVuSans-Oblique-4c"/>
      <use transform="translate(527.12028 -61.932812)scale(0.49)" xlink:href="#DejaVuSans-Oblique-4c"/>
      <use transform="translate(556.333659 -50.448437)scale(0.7)" xlink:href="#DejaVuSans-2c"/>
      <use transform="translate(592.222331 -50.448437)scale(0.7)" xlink:href="#DejaVuSans-Oblique-79"/>
      <use transform="translate(633.648112 -50.448437)scale(0.7)" xlink:href="#DejaVuSans-29"/>
      <use transform="translate(850.114493 0.825)" xlink:href="#DejaVuSans-20"/>
      <use transform="translate(881.901602 0.825)" xlink:href="#DejaVuSans-28"/>
      <use transform="translate(920.915274 0.825)" xlink:href="#DejaVuSans-25"/>
      <use transform="translate(1015.934805 0.825)" xlink:href="#DejaVuSans-29"/>
      <path d="M 109.017181 19.621875 
L 109.017181 25.871875 
L 837.614493 25.871875 
L 837.614493 19.621875 
L 109.017181 19.621875 
z
"/>
     </g>
    </g>
   </g>
   <g id="line2d_35">
    <path clip-path="url(#pfeb5bf54a8)" d="M 99.997557 26.548182 
L 143.478076 156.640294 
L 186.958596 180.437583 
L 230.439115 174.689959 
L 273.919635 185.903698 
L 317.400154 179.428325 
L 360.880674 175.390571 
L 404.361193 183.050547 
" style="fill:none;opacity:0.8;stroke:#ff0000;stroke-dasharray:8.4,3.6;stroke-dashoffset:0;stroke-width:3;"/>
   </g>
   <g id="line2d_36">
    <path clip-path="url(#pfeb5bf54a8)" d="M 99.997557 96.771525 
L 143.478076 116.364032 
L 186.958596 151.949023 
L 230.439115 140.222552 
L 273.919635 181.629476 
L 317.400154 179.110633 
L 360.880674 192.022686 
L 404.361193 199.511818 
" style="fill:none;stroke:#1f77b4;stroke-linecap:square;stroke-width:3;"/>
    <defs>
     <path d="M 0 -5 
L -1.12257 -1.545085 
L -4.755283 -1.545085 
L -1.816356 0.59017 
L -2.938926 4.045085 
L -0 1.90983 
L 2.938926 4.045085 
L 1.816356 0.59017 
L 4.755283 -1.545085 
L 1.12257 -1.545085 
z
" id="m6092e852c7" style="stroke:#1f77b4;stroke-linejoin:bevel;"/>
    </defs>
    <g clip-path="url(#pfeb5bf54a8)">
     <use style="fill:#1f77b4;stroke:#1f77b4;stroke-linejoin:bevel;" x="99.997557" xlink:href="#m6092e852c7" y="96.771525"/>
     <use style="fill:#1f77b4;stroke:#1f77b4;stroke-linejoin:bevel;" x="143.478076" xlink:href="#m6092e852c7" y="116.364032"/>
     <use style="fill:#1f77b4;stroke:#1f77b4;stroke-linejoin:bevel;" x="186.958596" xlink:href="#m6092e852c7" y="151.949023"/>
     <use style="fill:#1f77b4;stroke:#1f77b4;stroke-linejoin:bevel;" x="230.439115" xlink:href="#m6092e852c7" y="140.222552"/>
     <use style="fill:#1f77b4;stroke:#1f77b4;stroke-linejoin:bevel;" x="273.919635" xlink:href="#m6092e852c7" y="181.629476"/>
     <use style="fill:#1f77b4;stroke:#1f77b4;stroke-linejoin:bevel;" x="317.400154" xlink:href="#m6092e852c7" y="179.110633"/>
     <use style="fill:#1f77b4;stroke:#1f77b4;stroke-linejoin:bevel;" x="360.880674" xlink:href="#m6092e852c7" y="192.022686"/>
     <use style="fill:#1f77b4;stroke:#1f77b4;stroke-linejoin:bevel;" x="404.361193" xlink:href="#m6092e852c7" y="199.511818"/>
    </g>
   </g>
   <g id="line2d_37">
    <path clip-path="url(#pfeb5bf54a8)" d="M 99.997557 139.127441 
L 143.478076 124.010818 
L 186.958596 176.382469 
L 230.439115 175.191376 
L 273.919635 187.06735 
L 317.400154 181.162306 
L 360.880674 184.626367 
L 404.361193 174.255254 
" style="fill:none;stroke:#ff7f0e;stroke-linecap:square;stroke-width:3;"/>
   </g>
   <g id="patch_3">
    <path d="M 84.779375 208.16 
L 84.779375 17.9 
" style="fill:none;stroke:#000000;stroke-linecap:square;stroke-linejoin:miter;stroke-width:0.8;"/>
   </g>
   <g id="patch_4">
    <path d="M 419.579375 208.16 
L 419.579375 17.9 
" style="fill:none;stroke:#000000;stroke-linecap:square;stroke-linejoin:miter;stroke-width:0.8;"/>
   </g>
   <g id="patch_5">
    <path d="M 84.779375 208.16 
L 419.579375 208.16 
" style="fill:none;stroke:#000000;stroke-linecap:square;stroke-linejoin:miter;stroke-width:0.8;"/>
   </g>
   <g id="patch_6">
    <path d="M 84.779375 17.9 
L 419.579375 17.9 
" style="fill:none;stroke:#000000;stroke-linecap:square;stroke-linejoin:miter;stroke-width:0.8;"/>
   </g>
   <g id="legend_1">
    <g id="patch_7">
     <path d="M 188.13875 85.544688 
L 410.479375 85.544688 
Q 413.079375 85.544688 413.079375 82.944688 
L 413.079375 27 
Q 413.079375 24.4 410.479375 24.4 
L 188.13875 24.4 
Q 185.53875 24.4 185.53875 27 
L 185.53875 82.944688 
Q 185.53875 85.544688 188.13875 85.544688 
z
" style="fill:#ffffff;opacity:0.8;stroke:#cccccc;stroke-linejoin:miter;"/>
    </g>
    <g id="line2d_38">
     <path d="M 190.73875 34.927969 
L 216.73875 34.927969 
" style="fill:none;opacity:0.8;stroke:#ff0000;stroke-dasharray:8.4,3.6;stroke-dashoffset:0;stroke-width:3;"/>
    </g>
    <g id="line2d_39"/>
    <g id="text_19">
     <!-- Weight tying [PW17] -->
     <defs>
      <path d="M 3.328125 72.90625 
L 13.28125 72.90625 
L 28.609375 11.28125 
L 43.890625 72.90625 
L 54.984375 72.90625 
L 70.3125 11.28125 
L 85.59375 72.90625 
L 95.609375 72.90625 
L 77.296875 0 
L 64.890625 0 
L 49.515625 63.28125 
L 33.984375 0 
L 21.578125 0 
z
" id="DejaVuSans-57"/>
      <path d="M 56.203125 29.59375 
L 56.203125 25.203125 
L 14.890625 25.203125 
Q 15.484375 15.921875 20.484375 11.0625 
Q 25.484375 6.203125 34.421875 6.203125 
Q 39.59375 6.203125 44.453125 7.46875 
Q 49.3125 8.734375 54.109375 11.28125 
L 54.109375 2.78125 
Q 49.265625 0.734375 44.1875 -0.34375 
Q 39.109375 -1.421875 33.890625 -1.421875 
Q 20.796875 -1.421875 13.15625 6.1875 
Q 5.515625 13.8125 5.515625 26.8125 
Q 5.515625 40.234375 12.765625 48.109375 
Q 20.015625 56 32.328125 56 
Q 43.359375 56 49.78125 48.890625 
Q 56.203125 41.796875 56.203125 29.59375 
M 47.21875 32.234375 
Q 47.125 39.59375 43.09375 43.984375 
Q 39.0625 48.390625 32.421875 48.390625 
Q 24.90625 48.390625 20.390625 44.140625 
Q 15.875 39.890625 15.1875 32.171875 
z
" id="DejaVuSans-65"/>
      <path d="M 9.421875 54.6875 
L 18.40625 54.6875 
L 18.40625 0 
L 9.421875 0 
z
M 9.421875 75.984375 
L 18.40625 75.984375 
L 18.40625 64.59375 
L 9.421875 64.59375 
z
" id="DejaVuSans-69"/>
      <path d="M 45.40625 27.984375 
Q 45.40625 37.75 41.375 43.109375 
Q 37.359375 48.484375 30.078125 48.484375 
Q 22.859375 48.484375 18.828125 43.109375 
Q 14.796875 37.75 14.796875 27.984375 
Q 14.796875 18.265625 18.828125 12.890625 
Q 22.859375 7.515625 30.078125 7.515625 
Q 37.359375 7.515625 41.375 12.890625 
Q 45.40625 18.265625 45.40625 27.984375 
M 54.390625 6.78125 
Q 54.390625 -7.171875 48.1875 -13.984375 
Q 42 -20.796875 29.203125 -20.796875 
Q 24.46875 -20.796875 20.265625 -20.09375 
Q 16.0625 -19.390625 12.109375 -17.921875 
L 12.109375 -9.1875 
Q 16.0625 -11.328125 19.921875 -12.34375 
Q 23.78125 -13.375 27.78125 -13.375 
Q 36.625 -13.375 41.015625 -8.765625 
Q 45.40625 -4.15625 45.40625 5.171875 
L 45.40625 9.625 
Q 42.625 4.78125 38.28125 2.390625 
Q 33.9375 0 27.875 0 
Q 17.828125 0 11.671875 7.65625 
Q 5.515625 15.328125 5.515625 27.984375 
Q 5.515625 40.671875 11.671875 48.328125 
Q 17.828125 56 27.875 56 
Q 33.9375 56 38.28125 53.609375 
Q 42.625 51.21875 45.40625 46.390625 
L 45.40625 54.6875 
L 54.390625 54.6875 
z
" id="DejaVuSans-67"/>
      <path d="M 54.890625 33.015625 
L 54.890625 0 
L 45.90625 0 
L 45.90625 32.71875 
Q 45.90625 40.484375 42.875 44.328125 
Q 39.84375 48.1875 33.796875 48.1875 
Q 26.515625 48.1875 22.3125 43.546875 
Q 18.109375 38.921875 18.109375 30.90625 
L 18.109375 0 
L 9.078125 0 
L 9.078125 75.984375 
L 18.109375 75.984375 
L 18.109375 46.1875 
Q 21.34375 51.125 25.703125 53.5625 
Q 30.078125 56 35.796875 56 
Q 45.21875 56 50.046875 50.171875 
Q 54.890625 44.34375 54.890625 33.015625 
" id="DejaVuSans-68"/>
      <path d="M 18.3125 70.21875 
L 18.3125 54.6875 
L 36.8125 54.6875 
L 36.8125 47.703125 
L 18.3125 47.703125 
L 18.3125 18.015625 
Q 18.3125 11.328125 20.140625 9.421875 
Q 21.96875 7.515625 27.59375 7.515625 
L 36.8125 7.515625 
L 36.8125 0 
L 27.59375 0 
Q 17.1875 0 13.234375 3.875 
Q 9.28125 7.765625 9.28125 18.015625 
L 9.28125 47.703125 
L 2.6875 47.703125 
L 2.6875 54.6875 
L 9.28125 54.6875 
L 9.28125 70.21875 
z
" id="DejaVuSans-74"/>
      <path d="M 32.171875 -5.078125 
Q 28.375 -14.84375 24.75 -17.8125 
Q 21.140625 -20.796875 15.09375 -20.796875 
L 7.90625 -20.796875 
L 7.90625 -13.28125 
L 13.1875 -13.28125 
Q 16.890625 -13.28125 18.9375 -11.515625 
Q 21 -9.765625 23.484375 -3.21875 
L 25.09375 0.875 
L 2.984375 54.6875 
L 12.5 54.6875 
L 29.59375 11.921875 
L 46.6875 54.6875 
L 56.203125 54.6875 
z
" id="DejaVuSans-79"/>
      <path d="M 54.890625 33.015625 
L 54.890625 0 
L 45.90625 0 
L 45.90625 32.71875 
Q 45.90625 40.484375 42.875 44.328125 
Q 39.84375 48.1875 33.796875 48.1875 
Q 26.515625 48.1875 22.3125 43.546875 
Q 18.109375 38.921875 18.109375 30.90625 
L 18.109375 0 
L 9.078125 0 
L 9.078125 54.6875 
L 18.109375 54.6875 
L 18.109375 46.1875 
Q 21.34375 51.125 25.703125 53.5625 
Q 30.078125 56 35.796875 56 
Q 45.21875 56 50.046875 50.171875 
Q 54.890625 44.34375 54.890625 33.015625 
" id="DejaVuSans-6e"/>
      <path d="M 19.671875 64.796875 
L 19.671875 37.40625 
L 32.078125 37.40625 
Q 38.96875 37.40625 42.71875 40.96875 
Q 46.484375 44.53125 46.484375 51.125 
Q 46.484375 57.671875 42.71875 61.234375 
Q 38.96875 64.796875 32.078125 64.796875 
z
M 9.8125 72.90625 
L 32.078125 72.90625 
Q 44.34375 72.90625 50.609375 67.359375 
Q 56.890625 61.8125 56.890625 51.125 
Q 56.890625 40.328125 50.609375 34.8125 
Q 44.34375 29.296875 32.078125 29.296875 
L 19.671875 29.296875 
L 19.671875 0 
L 9.8125 0 
z
" id="DejaVuSans-50"/>
     </defs>
     <g transform="translate(227.13875 39.477969)scale(0.13 -0.13)">
      <use xlink:href="#DejaVuSans-57"/>
      <use x="98.798828" xlink:href="#DejaVuSans-65"/>
      <use x="160.322266" xlink:href="#DejaVuSans-69"/>
      <use x="188.105469" xlink:href="#DejaVuSans-67"/>
      <use x="251.582031" xlink:href="#DejaVuSans-68"/>
      <use x="314.960938" xlink:href="#DejaVuSans-74"/>
      <use x="354.169922" xlink:href="#DejaVuSans-20"/>
      <use x="385.957031" xlink:href="#DejaVuSans-74"/>
      <use x="425.166016" xlink:href="#DejaVuSans-79"/>
      <use x="484.345703" xlink:href="#DejaVuSans-69"/>
      <use x="512.128906" xlink:href="#DejaVuSans-6e"/>
      <use x="575.507812" xlink:href="#DejaVuSans-67"/>
      <use x="638.984375" xlink:href="#DejaVuSans-20"/>
      <use x="670.771484" xlink:href="#DejaVuSans-5b"/>
      <use x="709.785156" xlink:href="#DejaVuSans-50"/>
      <use x="770.087891" xlink:href="#DejaVuSans-57"/>
      <use x="868.964844" xlink:href="#DejaVuSans-31"/>
      <use x="932.587891" xlink:href="#DejaVuSans-37"/>
      <use x="996.210938" xlink:href="#DejaVuSans-5d"/>
     </g>
    </g>
    <g id="line2d_40">
     <path d="M 190.73875 54.009531 
L 216.73875 54.009531 
" style="fill:none;stroke:#1f77b4;stroke-linecap:square;stroke-width:3;"/>
    </g>
    <g id="line2d_41">
     <g>
      <use style="fill:#1f77b4;stroke:#1f77b4;stroke-linejoin:bevel;" x="203.73875" xlink:href="#m6092e852c7" y="54.009531"/>
     </g>
    </g>
    <g id="text_20">
     <!-- Bilinear map. [G18] -->
     <defs>
      <path d="M 19.671875 34.8125 
L 19.671875 8.109375 
L 35.5 8.109375 
Q 43.453125 8.109375 47.28125 11.40625 
Q 51.125 14.703125 51.125 21.484375 
Q 51.125 28.328125 47.28125 31.5625 
Q 43.453125 34.8125 35.5 34.8125 
z
M 19.671875 64.796875 
L 19.671875 42.828125 
L 34.28125 42.828125 
Q 41.5 42.828125 45.03125 45.53125 
Q 48.578125 48.25 48.578125 53.8125 
Q 48.578125 59.328125 45.03125 62.0625 
Q 41.5 64.796875 34.28125 64.796875 
z
M 9.8125 72.90625 
L 35.015625 72.90625 
Q 46.296875 72.90625 52.390625 68.21875 
Q 58.5 63.53125 58.5 54.890625 
Q 58.5 48.1875 55.375 44.234375 
Q 52.25 40.28125 46.1875 39.3125 
Q 53.46875 37.75 57.5 32.78125 
Q 61.53125 27.828125 61.53125 20.40625 
Q 61.53125 10.640625 54.890625 5.3125 
Q 48.25 0 35.984375 0 
L 9.8125 0 
z
" id="DejaVuSans-42"/>
      <path d="M 9.421875 75.984375 
L 18.40625 75.984375 
L 18.40625 0 
L 9.421875 0 
z
" id="DejaVuSans-6c"/>
      <path d="M 34.28125 27.484375 
Q 23.390625 27.484375 19.1875 25 
Q 14.984375 22.515625 14.984375 16.5 
Q 14.984375 11.71875 18.140625 8.90625 
Q 21.296875 6.109375 26.703125 6.109375 
Q 34.1875 6.109375 38.703125 11.40625 
Q 43.21875 16.703125 43.21875 25.484375 
L 43.21875 27.484375 
z
M 52.203125 31.203125 
L 52.203125 0 
L 43.21875 0 
L 43.21875 8.296875 
Q 40.140625 3.328125 35.546875 0.953125 
Q 30.953125 -1.421875 24.3125 -1.421875 
Q 15.921875 -1.421875 10.953125 3.296875 
Q 6 8.015625 6 15.921875 
Q 6 25.140625 12.171875 29.828125 
Q 18.359375 34.515625 30.609375 34.515625 
L 43.21875 34.515625 
L 43.21875 35.40625 
Q 43.21875 41.609375 39.140625 45 
Q 35.0625 48.390625 27.6875 48.390625 
Q 23 48.390625 18.546875 47.265625 
Q 14.109375 46.140625 10.015625 43.890625 
L 10.015625 52.203125 
Q 14.9375 54.109375 19.578125 55.046875 
Q 24.21875 56 28.609375 56 
Q 40.484375 56 46.34375 49.84375 
Q 52.203125 43.703125 52.203125 31.203125 
" id="DejaVuSans-61"/>
      <path d="M 41.109375 46.296875 
Q 39.59375 47.171875 37.8125 47.578125 
Q 36.03125 48 33.890625 48 
Q 26.265625 48 22.1875 43.046875 
Q 18.109375 38.09375 18.109375 28.8125 
L 18.109375 0 
L 9.078125 0 
L 9.078125 54.6875 
L 18.109375 54.6875 
L 18.109375 46.1875 
Q 20.953125 51.171875 25.484375 53.578125 
Q 30.03125 56 36.53125 56 
Q 37.453125 56 38.578125 55.875 
Q 39.703125 55.765625 41.0625 55.515625 
z
" id="DejaVuSans-72"/>
      <path d="M 52 44.1875 
Q 55.375 50.25 60.0625 53.125 
Q 64.75 56 71.09375 56 
Q 79.640625 56 84.28125 50.015625 
Q 88.921875 44.046875 88.921875 33.015625 
L 88.921875 0 
L 79.890625 0 
L 79.890625 32.71875 
Q 79.890625 40.578125 77.09375 44.375 
Q 74.3125 48.1875 68.609375 48.1875 
Q 61.625 48.1875 57.5625 43.546875 
Q 53.515625 38.921875 53.515625 30.90625 
L 53.515625 0 
L 44.484375 0 
L 44.484375 32.71875 
Q 44.484375 40.625 41.703125 44.40625 
Q 38.921875 48.1875 33.109375 48.1875 
Q 26.21875 48.1875 22.15625 43.53125 
Q 18.109375 38.875 18.109375 30.90625 
L 18.109375 0 
L 9.078125 0 
L 9.078125 54.6875 
L 18.109375 54.6875 
L 18.109375 46.1875 
Q 21.1875 51.21875 25.484375 53.609375 
Q 29.78125 56 35.6875 56 
Q 41.65625 56 45.828125 52.96875 
Q 50 49.953125 52 44.1875 
" id="DejaVuSans-6d"/>
      <path d="M 18.109375 8.203125 
L 18.109375 -20.796875 
L 9.078125 -20.796875 
L 9.078125 54.6875 
L 18.109375 54.6875 
L 18.109375 46.390625 
Q 20.953125 51.265625 25.265625 53.625 
Q 29.59375 56 35.59375 56 
Q 45.5625 56 51.78125 48.09375 
Q 58.015625 40.1875 58.015625 27.296875 
Q 58.015625 14.40625 51.78125 6.484375 
Q 45.5625 -1.421875 35.59375 -1.421875 
Q 29.59375 -1.421875 25.265625 0.953125 
Q 20.953125 3.328125 18.109375 8.203125 
M 48.6875 27.296875 
Q 48.6875 37.203125 44.609375 42.84375 
Q 40.53125 48.484375 33.40625 48.484375 
Q 26.265625 48.484375 22.1875 42.84375 
Q 18.109375 37.203125 18.109375 27.296875 
Q 18.109375 17.390625 22.1875 11.75 
Q 26.265625 6.109375 33.40625 6.109375 
Q 40.53125 6.109375 44.609375 11.75 
Q 48.6875 17.390625 48.6875 27.296875 
" id="DejaVuSans-70"/>
      <path d="M 59.515625 10.40625 
L 59.515625 29.984375 
L 43.40625 29.984375 
L 43.40625 38.09375 
L 69.28125 38.09375 
L 69.28125 6.78125 
Q 63.578125 2.734375 56.6875 0.65625 
Q 49.8125 -1.421875 42 -1.421875 
Q 24.90625 -1.421875 15.25 8.5625 
Q 5.609375 18.5625 5.609375 36.375 
Q 5.609375 54.25 15.25 64.234375 
Q 24.90625 74.21875 42 74.21875 
Q 49.125 74.21875 55.546875 72.453125 
Q 61.96875 70.703125 67.390625 67.28125 
L 67.390625 56.78125 
Q 61.921875 61.421875 55.765625 63.765625 
Q 49.609375 66.109375 42.828125 66.109375 
Q 29.4375 66.109375 22.71875 58.640625 
Q 16.015625 51.171875 16.015625 36.375 
Q 16.015625 21.625 22.71875 14.15625 
Q 29.4375 6.6875 42.828125 6.6875 
Q 48.046875 6.6875 52.140625 7.59375 
Q 56.25 8.5 59.515625 10.40625 
" id="DejaVuSans-47"/>
      <path d="M 31.78125 34.625 
Q 24.75 34.625 20.71875 30.859375 
Q 16.703125 27.09375 16.703125 20.515625 
Q 16.703125 13.921875 20.71875 10.15625 
Q 24.75 6.390625 31.78125 6.390625 
Q 38.8125 6.390625 42.859375 10.171875 
Q 46.921875 13.96875 46.921875 20.515625 
Q 46.921875 27.09375 42.890625 30.859375 
Q 38.875 34.625 31.78125 34.625 
M 21.921875 38.8125 
Q 15.578125 40.375 12.03125 44.71875 
Q 8.5 49.078125 8.5 55.328125 
Q 8.5 64.0625 14.71875 69.140625 
Q 20.953125 74.21875 31.78125 74.21875 
Q 42.671875 74.21875 48.875 69.140625 
Q 55.078125 64.0625 55.078125 55.328125 
Q 55.078125 49.078125 51.53125 44.71875 
Q 48 40.375 41.703125 38.8125 
Q 48.828125 37.15625 52.796875 32.3125 
Q 56.78125 27.484375 56.78125 20.515625 
Q 56.78125 9.90625 50.3125 4.234375 
Q 43.84375 -1.421875 31.78125 -1.421875 
Q 19.734375 -1.421875 13.25 4.234375 
Q 6.78125 9.90625 6.78125 20.515625 
Q 6.78125 27.484375 10.78125 32.3125 
Q 14.796875 37.15625 21.921875 38.8125 
M 18.3125 54.390625 
Q 18.3125 48.734375 21.84375 45.5625 
Q 25.390625 42.390625 31.78125 42.390625 
Q 38.140625 42.390625 41.71875 45.5625 
Q 45.3125 48.734375 45.3125 54.390625 
Q 45.3125 60.0625 41.71875 63.234375 
Q 38.140625 66.40625 31.78125 66.40625 
Q 25.390625 66.40625 21.84375 63.234375 
Q 18.3125 60.0625 18.3125 54.390625 
" id="DejaVuSans-38"/>
     </defs>
     <g transform="translate(227.13875 58.559531)scale(0.13 -0.13)">
      <use xlink:href="#DejaVuSans-42"/>
      <use x="68.603516" xlink:href="#DejaVuSans-69"/>
      <use x="96.386719" xlink:href="#DejaVuSans-6c"/>
      <use x="124.169922" xlink:href="#DejaVuSans-69"/>
      <use x="151.953125" xlink:href="#DejaVuSans-6e"/>
      <use x="215.332031" xlink:href="#DejaVuSans-65"/>
      <use x="276.855469" xlink:href="#DejaVuSans-61"/>
      <use x="338.134766" xlink:href="#DejaVuSans-72"/>
      <use x="379.248047" xlink:href="#DejaVuSans-20"/>
      <use x="411.035156" xlink:href="#DejaVuSans-6d"/>
      <use x="508.447266" xlink:href="#DejaVuSans-61"/>
      <use x="569.726562" xlink:href="#DejaVuSans-70"/>
      <use x="633.203125" xlink:href="#DejaVuSans-2e"/>
      <use x="664.990234" xlink:href="#DejaVuSans-20"/>
      <use x="696.777344" xlink:href="#DejaVuSans-5b"/>
      <use x="735.791016" xlink:href="#DejaVuSans-47"/>
      <use x="813.28125" xlink:href="#DejaVuSans-31"/>
      <use x="876.904297" xlink:href="#DejaVuSans-38"/>
      <use x="940.527344" xlink:href="#DejaVuSans-5d"/>
     </g>
    </g>
    <g id="line2d_42">
     <path d="M 190.73875 73.091094 
L 216.73875 73.091094 
" style="fill:none;stroke:#ff7f0e;stroke-linecap:square;stroke-width:3;"/>
    </g>
    <g id="line2d_43"/>
    <g id="text_21">
     <!-- Dual nonlinear map. [PH18] -->
     <defs>
      <path d="M 19.671875 64.796875 
L 19.671875 8.109375 
L 31.59375 8.109375 
Q 46.6875 8.109375 53.6875 14.9375 
Q 60.6875 21.78125 60.6875 36.53125 
Q 60.6875 51.171875 53.6875 57.984375 
Q 46.6875 64.796875 31.59375 64.796875 
z
M 9.8125 72.90625 
L 30.078125 72.90625 
Q 51.265625 72.90625 61.171875 64.09375 
Q 71.09375 55.28125 71.09375 36.53125 
Q 71.09375 17.671875 61.125 8.828125 
Q 51.171875 0 30.078125 0 
L 9.8125 0 
z
" id="DejaVuSans-44"/>
      <path d="M 8.5 21.578125 
L 8.5 54.6875 
L 17.484375 54.6875 
L 17.484375 21.921875 
Q 17.484375 14.15625 20.5 10.265625 
Q 23.53125 6.390625 29.59375 6.390625 
Q 36.859375 6.390625 41.078125 11.03125 
Q 45.3125 15.671875 45.3125 23.6875 
L 45.3125 54.6875 
L 54.296875 54.6875 
L 54.296875 0 
L 45.3125 0 
L 45.3125 8.40625 
Q 42.046875 3.421875 37.71875 1 
Q 33.40625 -1.421875 27.6875 -1.421875 
Q 18.265625 -1.421875 13.375 4.4375 
Q 8.5 10.296875 8.5 21.578125 
M 31.109375 56 
z
" id="DejaVuSans-75"/>
      <path d="M 30.609375 48.390625 
Q 23.390625 48.390625 19.1875 42.75 
Q 14.984375 37.109375 14.984375 27.296875 
Q 14.984375 17.484375 19.15625 11.84375 
Q 23.34375 6.203125 30.609375 6.203125 
Q 37.796875 6.203125 41.984375 11.859375 
Q 46.1875 17.53125 46.1875 27.296875 
Q 46.1875 37.015625 41.984375 42.703125 
Q 37.796875 48.390625 30.609375 48.390625 
M 30.609375 56 
Q 42.328125 56 49.015625 48.375 
Q 55.71875 40.765625 55.71875 27.296875 
Q 55.71875 13.875 49.015625 6.21875 
Q 42.328125 -1.421875 30.609375 -1.421875 
Q 18.84375 -1.421875 12.171875 6.21875 
Q 5.515625 13.875 5.515625 27.296875 
Q 5.515625 40.765625 12.171875 48.375 
Q 18.84375 56 30.609375 56 
" id="DejaVuSans-6f"/>
      <path d="M 9.8125 72.90625 
L 19.671875 72.90625 
L 19.671875 43.015625 
L 55.515625 43.015625 
L 55.515625 72.90625 
L 65.375 72.90625 
L 65.375 0 
L 55.515625 0 
L 55.515625 34.71875 
L 19.671875 34.71875 
L 19.671875 0 
L 9.8125 0 
z
" id="DejaVuSans-48"/>
     </defs>
     <g transform="translate(227.13875 77.641094)scale(0.13 -0.13)">
      <use xlink:href="#DejaVuSans-44"/>
      <use x="77.001953" xlink:href="#DejaVuSans-75"/>
      <use x="140.380859" xlink:href="#DejaVuSans-61"/>
      <use x="201.660156" xlink:href="#DejaVuSans-6c"/>
      <use x="229.443359" xlink:href="#DejaVuSans-20"/>
      <use x="261.230469" xlink:href="#DejaVuSans-6e"/>
      <use x="324.609375" xlink:href="#DejaVuSans-6f"/>
      <use x="385.791016" xlink:href="#DejaVuSans-6e"/>
      <use x="449.169922" xlink:href="#DejaVuSans-6c"/>
      <use x="476.953125" xlink:href="#DejaVuSans-69"/>
      <use x="504.736328" xlink:href="#DejaVuSans-6e"/>
      <use x="568.115234" xlink:href="#DejaVuSans-65"/>
      <use x="629.638672" xlink:href="#DejaVuSans-61"/>
      <use x="690.917969" xlink:href="#DejaVuSans-72"/>
      <use x="732.03125" xlink:href="#DejaVuSans-20"/>
      <use x="763.818359" xlink:href="#DejaVuSans-6d"/>
      <use x="861.230469" xlink:href="#DejaVuSans-61"/>
      <use x="922.509766" xlink:href="#DejaVuSans-70"/>
      <use x="985.986328" xlink:href="#DejaVuSans-2e"/>
      <use x="1017.773438" xlink:href="#DejaVuSans-20"/>
      <use x="1049.560547" xlink:href="#DejaVuSans-5b"/>
      <use x="1088.574219" xlink:href="#DejaVuSans-50"/>
      <use x="1148.876953" xlink:href="#DejaVuSans-48"/>
      <use x="1224.072266" xlink:href="#DejaVuSans-31"/>
      <use x="1287.695312" xlink:href="#DejaVuSans-38"/>
      <use x="1351.318359" xlink:href="#DejaVuSans-5d"/>
     </g>
    </g>
   </g>
  </g>
 </g>
 <defs>
  <clipPath id="pfeb5bf54a8">
   <rect height="190.26" width="334.8" x="84.779375" y="17.9"/>
  </clipPath>
 </defs>
</svg>
